<?xml version="1.0" ?>
<!-- Uploaded to: SVG Repo, www.svgrepo.com, Generator: SVG Repo Mixer Tools -->
<svg width="800px" height="800px" viewBox="0 0 512 512" id="Layer_1" version="1.1" xml:space="preserve" xmlns="http://www.w3.org/2000/svg" xmlns:xlink="http://www.w3.org/1999/xlink">
<style type="text/css">
	.st0{fill:#00B4D8;}
</style>
<g>
<g>
<path d="M381.2,397.4H130.8c-4.7,0-8.6-3.8-8.6-8.6V226.5c0-4.7,3.8-8.6,8.6-8.6H179c4.7,0,8.6,3.8,8.6,8.6c0,4.7-3.8,8.6-8.6,8.6    h-39.6v145.2h233.3V235.1H333c-4.7,0-8.6-3.8-8.6-8.6c0-4.7,3.8-8.6,8.6-8.6h48.2c4.7,0,8.6,3.8,8.6,8.6v162.4    C389.8,393.6,385.9,397.4,381.2,397.4z"/>
</g>
<g>
<polygon class="st0" points="333,273.3 333,123.1 179,123.1 179,273.3 220.1,310.1 302,307.7   "/>
</g>
<g>
<path d="M130.8,397.4c-2.2,0-4.5-0.9-6.1-2.6c-3.3-3.4-3.2-8.8,0.2-12.1l77.2-75l-77.2-75c-3.4-3.3-3.5-8.7-0.2-12.1    c3.3-3.4,8.7-3.5,12.1-0.2l83.5,81.2c1.7,1.6,2.6,3.8,2.6,6.1s-0.9,4.5-2.6,6.1L136.8,395C135.1,396.6,132.9,397.4,130.8,397.4z"/>
</g>
<g>
<path d="M381.2,397.4c-2.2,0-4.3-0.8-6-2.4l-83.5-81.2c-1.7-1.6-2.6-3.8-2.6-6.1s0.9-4.5,2.6-6.1l83.5-81.2    c3.4-3.3,8.8-3.2,12.1,0.2c3.3,3.4,3.2,8.8-0.2,12.1l-77.2,75l77.2,75c3.4,3.3,3.5,8.7,0.2,12.1    C385.7,396.6,383.4,397.4,381.2,397.4z"/>
</g>
<g>
<path d="M297.7,316.2h-83.5c-4.7,0-8.6-3.8-8.6-8.6s3.8-8.6,8.6-8.6h83.5c4.7,0,8.6,3.8,8.6,8.6S302.5,316.2,297.7,316.2z"/>
</g>
<g>
<path d="M333,281.9c-4.7,0-8.6-3.8-8.6-8.6V131.7h-137v141.6c0,4.7-3.8,8.6-8.6,8.6s-8.6-3.8-8.6-8.6V123.1c0-4.7,3.8-8.6,8.6-8.6    H333c4.7,0,8.6,3.8,8.6,8.6v150.2C341.6,278.1,337.8,281.9,333,281.9z"/>
</g>
<g>
<g>
<path d="M277.2,174c6.3,3.3,11.3,7.9,14.8,13.7c3.5,5.8,5.3,12.2,5.3,19.3c0,5.3-0.8,9.8-2.5,13.5c-1.7,3.8-3.9,6.6-6.8,8.6     c-2.9,2-6.2,2.9-9.9,2.9c-3.1,0-5.7-0.6-8-1.9c-1.6-0.9-2.9-2.2-3.9-3.8c-0.5-0.8-1.6-0.9-2.1-0.1c-2.9,3.9-7.2,5.8-13,5.8     c-3.4,0-6.7-0.9-9.6-2.8c-3-1.8-5.4-4.4-7.1-7.7c-1.8-3.3-2.7-7.1-2.7-11.5c0-4.3,0.9-8.1,2.6-11.5c1.8-3.3,4.1-5.9,7.1-7.7     c3-1.8,6.2-2.7,9.7-2.7c4,0,7.4,1,10.1,3.1c0.9,0.6,2.1,0,2.1-1l0,0c0-0.7,0.6-1.3,1.3-1.3h11.6c0.7,0,1.3,0.6,1.3,1.3v25.4     c0,1.9,0.3,3.2,1,4c0.7,0.8,1.6,1.2,2.8,1.2c3.7,0,5.5-4.5,5.5-13.6c0-5.5-1.3-10.5-3.9-14.8c-2.6-4.3-6.3-7.7-11-10.1     c-4.7-2.4-10.2-3.6-16.4-3.6c-6.1,0-11.6,1.3-16.3,3.9c-4.8,2.6-8.4,6.3-11.1,10.9c-2.6,4.6-3.9,9.8-3.9,15.6     c0,5.9,1.3,11.2,3.9,15.8c2.6,4.7,6.2,8.3,10.9,10.9c4.7,2.6,10.1,3.9,16.2,3.9c5.7,0,11.1-1.1,16.1-3.3c0.7-0.3,1.5,0.1,1.8,0.8     l2.4,6.9c0.2,0.6-0.1,1.4-0.7,1.6c-2.4,1-5.2,1.9-8.4,2.6c-3.7,0.8-7.4,1.1-11.2,1.1c-8.5,0-15.9-1.8-22.4-5.3     c-6.4-3.5-11.4-8.3-15-14.4c-3.5-6.1-5.3-13-5.3-20.7c0-7.6,1.8-14.4,5.3-20.5c3.6-6.1,8.6-10.9,15.1-14.4     c6.5-3.5,14-5.3,22.5-5.3C263.7,169,270.9,170.7,277.2,174z M261.1,217.5c1.6-1.8,2.4-4.2,2.4-7.4c0-3.2-0.8-5.6-2.4-7.4     c-1.6-1.8-3.7-2.6-6.3-2.6c-2.6,0-4.6,0.9-6.2,2.6c-1.6,1.8-2.4,4.2-2.4,7.4c0,3.2,0.8,5.6,2.4,7.4c1.6,1.8,3.6,2.7,6.2,2.7     C257.4,220.1,259.4,219.3,261.1,217.5z"/>
</g>
</g>
</g>
</svg>